<svg width="36" height="36" viewBox="0 0 36 36" fill="none" xmlns="http://www.w3.org/2000/svg">
<path d="M15.975 28.665V7.335C15.975 5.31 15.12 4.5 12.96 4.5H7.515C5.355 4.5 4.5 5.31 4.5 7.335V28.665C4.5 30.69 5.355 31.5 7.515 31.5H12.96C15.12 31.5 15.975 30.69 15.975 28.665Z" stroke="#292D32" stroke-width="1.5" stroke-linecap="round" stroke-linejoin="round"/>
<path d="M31.5 28.665V7.335C31.5 5.31 30.645 4.5 28.485 4.5H23.04C20.895 4.5 20.025 5.31 20.025 7.335V28.665C20.025 30.69 20.88 31.5 23.04 31.5H28.485C30.645 31.5 31.5 30.69 31.5 28.665Z" stroke="#292D32" stroke-width="1.5" stroke-linecap="round" stroke-linejoin="round"/>
</svg>
